<svg width="24" height="25" viewBox="0 0 24 25" fill="none" xmlns="http://www.w3.org/2000/svg">
<path fill-rule="evenodd" clip-rule="evenodd" d="M0 12.5C0 19.1274 5.37258 24.5 12 24.5C18.6274 24.5 24 19.1274 24 12.5C24 5.87258 18.6274 0.5 12 0.5C5.37258 0.5 0 5.87258 0 12.5ZM9.8 18L10.0042 14.9411L10.004 14.941L15.5685 9.9195C15.8127 9.70276 15.5151 9.59707 15.1909 9.79366L8.32364 14.1262L5.35734 13.2003C4.71675 13.0042 4.71215 12.564 5.50116 12.2475L17.0602 7.79043C17.5881 7.55075 18.0976 7.91723 17.8961 8.72525L15.9276 18.0015C15.7901 18.6607 15.3919 18.8184 14.84 18.5139L11.8414 16.2985L10.4 17.7C10.3955 17.7044 10.3909 17.7088 10.3864 17.7132C10.2252 17.8701 10.0919 18 9.8 18Z" fill="white"/>
</svg>
