<svg width="24" height="25" viewBox="0 0 24 25" fill="none" xmlns="http://www.w3.org/2000/svg">
<path fill-rule="evenodd" clip-rule="evenodd" d="M12 0.5C5.37258 0.5 0 5.87258 0 12.5C0 19.1274 5.37258 24.5 12 24.5C18.6274 24.5 24 19.1274 24 12.5C24 5.87258 18.6274 0.5 12 0.5ZM12.9771 16.2881C12.8587 16.4128 12.6277 16.438 12.6277 16.438H11.8627C11.8627 16.438 10.1749 16.5376 8.68801 15.0185C7.06654 13.3611 5.63477 10.0728 5.63477 10.0728C5.63477 10.0728 5.55213 9.85707 5.64166 9.75321C5.74245 9.63584 6.01729 9.62847 6.01729 9.62847L7.84597 9.61679C7.84597 9.61679 8.01814 9.64444 8.14147 9.73355C8.24351 9.80729 8.30048 9.94433 8.30048 9.94433C8.30048 9.94433 8.59598 10.6781 8.98726 11.3418C9.75166 12.6378 10.1073 12.9211 10.3664 12.7822C10.7446 12.58 10.6313 10.9503 10.6313 10.9503C10.6313 10.9503 10.6381 10.3591 10.4409 10.0955C10.2882 9.89148 10.0002 9.83187 9.87312 9.81528C9.76982 9.80176 9.93885 9.56701 10.158 9.46193C10.4873 9.304 11.0682 9.29478 11.755 9.30154C12.2903 9.30707 12.4443 9.33964 12.6534 9.38941C13.1387 9.50437 13.1235 9.87276 13.0908 10.6678C13.0811 10.9056 13.0697 11.1816 13.0697 11.5003C13.0697 11.5719 13.0676 11.6483 13.0654 11.7268C13.0541 12.1342 13.0411 12.6006 13.3145 12.7742C13.4547 12.8627 13.7972 12.7871 14.6542 11.359C15.0606 10.6818 15.3648 9.88595 15.3648 9.88595C15.3648 9.88595 15.4318 9.744 15.5351 9.68316C15.6409 9.62109 15.7836 9.64014 15.7836 9.64014L17.7081 9.62847C17.7081 9.62847 18.2866 9.56025 18.3799 9.81713C18.4782 10.0857 18.1639 10.7137 17.3776 11.7424C16.6317 12.7185 16.2687 13.0779 16.302 13.3958C16.3264 13.628 16.5623 13.8381 17.0151 14.2503C17.9603 15.1117 18.2136 15.5649 18.2745 15.6738C18.2795 15.6829 18.2833 15.6895 18.286 15.6938C18.7098 16.384 17.8158 16.438 17.8158 16.438L16.1061 16.4614C16.1061 16.4614 15.7392 16.5327 15.2559 16.207C15.0027 16.0365 14.7553 15.7581 14.5197 15.4929C14.1598 15.0879 13.8274 14.7138 13.5436 14.8022C13.0672 14.9509 13.0816 15.9581 13.0816 15.9581C13.0816 15.9581 13.0854 16.1738 12.9771 16.2881Z" fill="white"/>
</svg>
